<?xml version="1.0" encoding="UTF-8" standalone="no"?>
<!-- Generator: Adobe Illustrator 18.1.1, SVG Export Plug-In . SVG Version: 6.00 Build 0)  -->

<svg
   xmlns:dc="http://purl.org/dc/elements/1.1/"
   xmlns:cc="http://creativecommons.org/ns#"
   xmlns:rdf="http://www.w3.org/1999/02/22-rdf-syntax-ns#"
   xmlns:svg="http://www.w3.org/2000/svg"
   xmlns="http://www.w3.org/2000/svg"
   xmlns:sodipodi="http://sodipodi.sourceforge.net/DTD/sodipodi-0.dtd"
   xmlns:inkscape="http://www.inkscape.org/namespaces/inkscape"
   version="1.1"
   id="Layer_1"
   x="0px"
   y="0px"
   viewBox="-249 83.1 381 416"
   enable-background="new -249 83.1 381 416"
   xml:space="preserve"
   inkscape:version="0.91 r13725"
   sodipodi:docname="drec_logo.svg"
   inkscape:export-filename="/home/tpl/Desktop/drupal_dropdog.png"
   inkscape:export-xdpi="72.031647"
   inkscape:export-ydpi="72.031647"><metadata
     id="metadata25"><rdf:RDF><cc:Work
         rdf:about=""><dc:format>image/svg+xml</dc:format><dc:type
           rdf:resource="http://purl.org/dc/dcmitype/StillImage" /><dc:title /></cc:Work></rdf:RDF></metadata><defs
     id="defs23" /><sodipodi:namedview
     pagecolor="#ffffff"
     bordercolor="#666666"
     borderopacity="1"
     objecttolerance="10"
     gridtolerance="10"
     guidetolerance="10"
     inkscape:pageopacity="0"
     inkscape:pageshadow="2"
     inkscape:window-width="1535"
     inkscape:window-height="876"
     id="namedview21"
     showgrid="false"
     inkscape:zoom="0.80229423"
     inkscape:cx="754.86264"
     inkscape:cy="208"
     inkscape:window-x="65"
     inkscape:window-y="24"
     inkscape:window-maximized="1"
     inkscape:current-layer="Layer_1" /><rect
     style="opacity:1;fill:none;fill-opacity:1;fill-rule:nonzero;stroke:none;stroke-width:2;stroke-linejoin:round;stroke-miterlimit:4;stroke-dasharray:none;stroke-opacity:1"
     id="rect4170"
     width="366.4491"
     height="411.3204"
     x="-12.179153"
     y="-29.384422" /><rect
     style="opacity:1;fill:none;fill-opacity:1;fill-rule:nonzero;stroke:none;stroke-width:2;stroke-linejoin:round;stroke-miterlimit:4;stroke-dasharray:none;stroke-opacity:1"
     id="rect4172"
     width="314.09924"
     height="2.492851"
     x="-121.8646"
     y="166.30438" /><g
     id="g4336"
     inkscape:export-filename="/home/tpl/Desktop/drec-logo.png"
     inkscape:export-xdpi="72"
     inkscape:export-ydpi="72"
     transform="translate(-532.2237,221.86374)"><g
       id="g4328"><g
         id="g4226"
         transform="matrix(0.37716609,-0.37482844,0.65927177,0.66338338,142.78659,46.206358)"><path
           transform="scale(1,-1)"
           inkscape:transform-center-y="0.41524488"
           inkscape:transform-center-x="38.941792"
           d="m 419.82826,-113.99833 -118.26382,-67.44916 -118.26383,-67.44917 117.5446,-68.69489 117.5446,-68.69489 0.71922,136.14405 z"
           inkscape:randomized="0"
           inkscape:rounded="0"
           inkscape:flatsided="false"
           sodipodi:arg2="2.0891123"
           sodipodi:arg1="1.0419148"
           sodipodi:r2="78.603905"
           sodipodi:r1="157.20781"
           sodipodi:cy="-249.72714"
           sodipodi:cx="340.50623"
           sodipodi:sides="3"
           id="path4209"
           style="opacity:1;fill:#2ba9e0;fill-opacity:1;fill-rule:nonzero;stroke:none;stroke-width:1.73599994;stroke-linecap:round;stroke-linejoin:round;stroke-miterlimit:4;stroke-dasharray:13.888, 13.888;stroke-dashoffset:8.67999935;stroke-opacity:1"
           sodipodi:type="star" /><path
           sodipodi:type="star"
           style="opacity:1;fill:#ffffff;fill-opacity:1;fill-rule:nonzero;stroke:none;stroke-width:1.73599994;stroke-linecap:round;stroke-linejoin:round;stroke-miterlimit:4;stroke-dasharray:13.888, 13.888;stroke-dashoffset:8.67999935;stroke-opacity:1"
           id="path4224"
           sodipodi:sides="3"
           sodipodi:cx="365.89325"
           sodipodi:cy="-249.83237"
           sodipodi:r1="117.37394"
           sodipodi:r2="58.686974"
           sodipodi:arg1="1.0419148"
           sodipodi:arg2="2.0891123"
           inkscape:flatsided="false"
           inkscape:rounded="0"
           inkscape:randomized="0"
           d="m 425.11638,-148.495 -88.29771,-50.35865 -88.29772,-50.35866 87.76073,-51.28874 87.76074,-51.28874 0.53698,101.64739 z"
           inkscape:transform-center-x="29.074587"
           inkscape:transform-center-y="0.31002203"
           transform="scale(1,-1)" /></g><g
         transform="matrix(-0.37716609,0.37482844,0.65927177,0.66338338,478.79624,-287.98161)"
         id="g4230"><path
           sodipodi:type="star"
           style="opacity:1;fill:#2ba9e0;fill-opacity:1;fill-rule:nonzero;stroke:none;stroke-width:1.73599994;stroke-linecap:round;stroke-linejoin:round;stroke-miterlimit:4;stroke-dasharray:13.888, 13.888;stroke-dashoffset:8.67999935;stroke-opacity:1"
           id="path4232"
           sodipodi:sides="3"
           sodipodi:cx="340.50623"
           sodipodi:cy="-249.72714"
           sodipodi:r1="157.20781"
           sodipodi:r2="78.603905"
           sodipodi:arg1="1.0419148"
           sodipodi:arg2="2.0891123"
           inkscape:flatsided="false"
           inkscape:rounded="0"
           inkscape:randomized="0"
           d="m 419.82826,-113.99833 -118.26382,-67.44916 -118.26383,-67.44917 117.5446,-68.69489 117.5446,-68.69489 0.71922,136.14405 z"
           inkscape:transform-center-x="38.941792"
           inkscape:transform-center-y="0.41524488"
           transform="scale(1,-1)" /><path
           transform="scale(1,-1)"
           inkscape:transform-center-y="0.31002203"
           inkscape:transform-center-x="29.074587"
           d="m 425.11638,-148.495 -88.29771,-50.35865 -88.29772,-50.35866 87.76073,-51.28874 87.76074,-51.28874 0.53698,101.64739 z"
           inkscape:randomized="0"
           inkscape:rounded="0"
           inkscape:flatsided="false"
           sodipodi:arg2="2.0891123"
           sodipodi:arg1="1.0419148"
           sodipodi:r2="58.686974"
           sodipodi:r1="117.37394"
           sodipodi:cy="-249.83237"
           sodipodi:cx="365.89325"
           sodipodi:sides="3"
           id="path4234"
           style="opacity:1;fill:#ffffff;fill-opacity:1;fill-rule:nonzero;stroke:none;stroke-width:1.73599994;stroke-linecap:round;stroke-linejoin:round;stroke-miterlimit:4;stroke-dasharray:13.888, 13.888;stroke-dashoffset:8.67999935;stroke-opacity:1"
           sodipodi:type="star" /></g></g><g
       transform="matrix(0.99051383,0.13741309,-0.13741309,0.99051383,29.813464,-74.037029)"
       id="g4318"><g
         transform="matrix(0.72884207,0.45378558,-0.45378558,0.72884207,660.59768,-154.71808)"
         id="g4155"
         style="fill:#2ba9e0;fill-opacity:1"><path
           style="fill:#2ba9e0;fill-opacity:1"
           inkscape:connector-curvature="0"
           id="path4157"
           d="m -69.7,312.5 c -29.1,0 -52.7,23.6 -52.7,52.7 0,29.1 23.6,52.7 52.7,52.7 29.1,0 52.7,-23.6 52.7,-52.7 0,-29.1 -23.6,-52.7 -52.7,-52.7 z" /></g><g
         id="g4151"
         transform="matrix(0.44438829,0.27668118,-0.27668118,0.44438829,576.09272,-63.179736)"
         style="fill:#ffffff;fill-opacity:1"><path
           d="m -69.7,312.5 c -29.1,0 -52.7,23.6 -52.7,52.7 0,29.1 23.6,52.7 52.7,52.7 29.1,0 52.7,-23.6 52.7,-52.7 0,-29.1 -23.6,-52.7 -52.7,-52.7 z"
           id="path4153"
           inkscape:connector-curvature="0"
           style="fill:#ffffff;fill-opacity:1" /></g><g
         style="fill:#2ba9e0;fill-opacity:1"
         id="g4167"
         transform="matrix(0.54794967,0.34115985,-0.34115985,0.54794967,644.67608,-154.94937)"><path
           d="m -69.7,312.5 c -29.1,0 -52.7,23.6 -52.7,52.7 0,29.1 23.6,52.7 52.7,52.7 29.1,0 52.7,-23.6 52.7,-52.7 0,-29.1 -23.6,-52.7 -52.7,-52.7 z"
           id="path4169"
           inkscape:connector-curvature="0"
           style="fill:#2ba9e0;fill-opacity:1" /></g><g
         style="fill:#ffffff;fill-opacity:1"
         transform="matrix(0.35718572,0.22238789,-0.22238789,0.35718572,588.00431,-93.560781)"
         id="g4171"><path
           style="fill:#ffffff;fill-opacity:1"
           inkscape:connector-curvature="0"
           id="path4173"
           d="m -69.7,312.5 c -29.1,0 -52.7,23.6 -52.7,52.7 0,29.1 23.6,52.7 52.7,52.7 29.1,0 52.7,-23.6 52.7,-52.7 0,-29.1 -23.6,-52.7 -52.7,-52.7 z" /></g></g></g><rect
     style="opacity:1;fill:none;fill-opacity:1;fill-rule:nonzero;stroke:none;stroke-width:2;stroke-linejoin:round;stroke-miterlimit:4;stroke-dasharray:none;stroke-opacity:1"
     id="rect4165"
     width="162.40143"
     height="178.91682"
     x="444.52887"
     y="195.42166"
     ry="0" /></svg>